<svg xmlns="http://www.w3.org/2000/svg" width="24" height="24"><g fill="#D8D8D8"><path d="M12 23.918c6.564 0 11.918-5.333 11.918-11.918C23.918 5.415 18.564.082 12 .082 5.436.082.082 5.436.082 12c0 6.564 5.354 11.918 11.918 11.918zm0-22.154c5.641 0 10.236 4.595 10.236 10.236 0 5.641-4.595 10.236-10.236 10.236C6.359 22.236 1.764 17.64 1.764 12 1.764 6.359 6.36 1.764 12 1.764z"/><path d="M9.251 17.949c.164.164.37.246.595.246.205 0 .43-.082.595-.246l5.415-5.416a.822.822 0 0 0 .247-.595.822.822 0 0 0-.247-.594l-5.415-5.416a.842.842 0 0 0-1.19 1.19l4.82 4.82-4.82 4.821a.842.842 0 0 0 0 1.19z"/></g></svg>