<svg xmlns="http://www.w3.org/2000/svg" width="40" height="40" viewBox="0 0 40 40">
    <g fill="#FFF" fill-rule="nonzero">
        <path d="M19.338 6.504a.813.813 0 0 0-1.292 0c-.328.44-8.132 10.81-8.132 15.34.026 4.742 3.944 8.58 8.782 8.6 4.835-.025 8.748-3.86 8.774-8.6 0-4.53-7.803-14.94-8.132-15.34zm-.646 22.365c-3.962 0-7.174-3.15-7.174-7.033 0-3.027 4.7-10.12 7.178-13.524v-.008c2.478 3.405 7.17 10.497 7.17 13.532 0 3.884-3.212 7.033-7.174 7.033z"/>
        <path d="M11.534 33.503C2.981 29.641-.758 19.713 3.182 11.327a16.663 16.663 0 0 1 2.153-3.424l1.74 1.927c.294.325.8.355 1.132.067a.782.782 0 0 0 .256-.437l1.106-5.346a.775.775 0 0 0-.184-.668.81.81 0 0 0-.658-.268l-5.574.385a.792.792 0 0 0-.744.84.779.779 0 0 0 .199.466l1.668 1.847c-6.539 7.811-5.38 19.34 2.587 25.75.344.277.699.542 1.062.794H7.91c.93.645 1.918 1.205 2.952 1.674.105.048.22.072.336.071a.794.794 0 0 0 .807-.782.786.786 0 0 0-.47-.72zM7.757 4.821l-.594 2.784L4.87 5.057l2.888-.236zM36.54 19.595a.799.799 0 0 0-.89.69v.002c-.99 8.181-7.914 14.435-16.312 14.734l.248-2.359a.788.788 0 0 0-.67-.897.815.815 0 0 0-.549.11l-4.74 2.902a.777.777 0 0 0-.136 1.242l4.01 3.75c.15.138.348.214.554.213a.79.79 0 0 0 .802-.7l.336-2.68c9.27-.235 16.956-7.107 18.045-16.134a.79.79 0 0 0-.697-.873zM17.454 37.529l-2.101-1.95 2.462-1.478-.361 3.428zM39.523 12.01a.816.816 0 0 0-.48-.089l.008.024-2.71.4c-3.365-9.56-13.997-14.637-23.75-11.34-.585.199-1.16.425-1.723.68a.782.782 0 0 0-.393 1.045.81.81 0 0 0 1.067.385c8.556-3.876 18.698-.22 22.652 8.169.196.415.374.837.534 1.266l-2.406.354a.789.789 0 0 0-.67.897c.026.17.11.328.237.447l4.01 3.782a.81.81 0 0 0 .553.22h.12a.802.802 0 0 0 .586-.4l2.687-4.773a.778.778 0 0 0-.322-1.066zm-3.239 4.212L34.2 14.256l3.48-.55-1.395 2.516z"/>
    </g>
</svg>
