<svg xmlns="http://www.w3.org/2000/svg" width="32" height="32" viewBox="0 0 32 32">
    <g fill="#7A8491" fill-rule="evenodd">
        <path fill-rule="nonzero" d="M16 0C7.178 0 0 7.177 0 16s7.178 16 16 16 16-7.177 16-16S24.822 0 16 0zm0 30.77C7.857 30.77 1.23 24.142 1.23 16S7.858 1.23 16 1.23 30.77 7.858 30.77 16 24.142 30.77 16 30.77z"/>
        <path d="M21.824 10.176a.6.6 0 0 0-.848 0L16 15.152l-4.976-4.976a.6.6 0 1 0-.848.848L15.152 16l-4.976 4.976a.6.6 0 1 0 .848.848L16 16.848l4.976 4.976a.598.598 0 0 0 .848 0 .6.6 0 0 0 0-.848L16.848 16l4.976-4.976a.6.6 0 0 0 0-.848z"/>
    </g>
</svg>
