<svg xmlns="http://www.w3.org/2000/svg" xmlns:xlink="http://www.w3.org/1999/xlink" width="102" height="102"><defs><circle id="a" cx="50" cy="50" r="50"/></defs><g fill="none" fill-rule="evenodd" transform="translate(1 1)"><mask id="b" fill="#fff"><use xlink:href="#a"/></mask><use stroke="#CDA79C" xlink:href="#a"/><g fill="#CDA79C" mask="url(#b)"><path d="M68.797 59.2l-4.438 6.432-3.132-2.593a.788.788 0 0 0-1.116.11.803.803 0 0 0 .11 1.126l3.796 3.143a.785.785 0 0 0 1.154-.161l4.928-7.143A.804.804 0 0 0 69.901 59a.787.787 0 0 0-1.104.2z"/><path fill-rule="nonzero" d="M65.483 53.24V26H29v48h35.69C70.375 74 75 69.334 75 63.6c0-5.464-4.203-9.949-9.517-10.36zM30.586 72.4V27.6h4.759v44.8h-4.759zm28.614 0H36.93V27.6h26.966v25.63c-.046.004-.09.013-.134.017-.155.014-.307.037-.46.058-.181.025-.364.05-.542.084-.153.03-.302.066-.453.102a9.794 9.794 0 0 0-.517.135 9.38 9.38 0 0 0-.439.144 9.745 9.745 0 0 0-.494.182 11.172 11.172 0 0 0-.89.412 10.258 10.258 0 0 0-.84.493 9.557 9.557 0 0 0-.79.569 9.088 9.088 0 0 0-.733.638c-.109.105-.217.21-.321.318-.12.126-.236.256-.35.388-.098.114-.197.227-.29.344-.109.138-.211.28-.314.424-.086.121-.174.241-.256.367-.097.15-.186.304-.277.458-.073.127-.15.254-.219.384-.084.162-.16.329-.237.496-.06.132-.124.262-.18.397-.071.175-.132.355-.194.534-.047.134-.098.266-.139.402-.058.192-.102.389-.149.585-.03.13-.068.257-.095.39-.044.22-.072.446-.102.67-.015.114-.037.225-.049.339-.035.344-.054.69-.054 1.04a10.678 10.678 0 0 0 .07 1.163c.033.306.077.608.137.905l.023.103a10.262 10.262 0 0 0 .263.995c.09.283.19.56.302.83.02.051.044.1.066.15.103.237.215.47.335.699.027.053.053.107.083.16.14.255.29.503.449.744.035.053.072.105.108.158.147.213.3.421.461.622.03.037.057.074.087.11.184.223.378.437.58.643a10.276 10.276 0 0 0 .753.702l.05.045a10.481 10.481 0 0 0 .871.645c.062.043.12.087.183.126zm5.49 0c-4.81 0-8.724-3.948-8.724-8.8s3.913-8.8 8.724-8.8c4.81 0 8.724 3.948 8.724 8.8s-3.914 8.8-8.724 8.8z"/><path fill-rule="nonzero" d="M59.931 34H40.897v11.2H59.93V34zm-1.586 9.6H42.483v-8h15.862v8z"/><path d="M44.862 37.2h11.103v1.6H44.862zm0 3.2h11.103V42H44.862z"/></g></g></svg>