<svg xmlns="http://www.w3.org/2000/svg" xmlns:xlink="http://www.w3.org/1999/xlink" width="102" height="102" viewBox="0 0 102 102">
    <defs>
        <circle id="a" cx="50" cy="50" r="50"/>
    </defs>
    <g fill="none" fill-rule="evenodd" transform="translate(1 1)">
        <mask id="b" fill="#fff">
            <use xlink:href="#a"/>
        </mask>
        <use stroke="#CDA79C" xlink:href="#a"/>
        <g fill="#CDA79C" mask="url(#b)">
            <path fill-rule="nonzero" d="M64.472 68.526V60.02h.784v-.774c0-2.131-1.758-3.866-3.92-3.866h-6.271V29.093c0-1.706-1.407-3.093-3.136-3.093-1.73 0-3.136 1.387-3.136 3.093V55.38H42.52c-2.161 0-3.92 1.735-3.92 3.867v.773h.784v8.505c0 2.985 2.462 5.412 5.488 5.412h12.544v-.914c1.121.577 2.47.914 3.92.914h7.055v-1.546c-2.161 0-3.92-1.735-3.92-3.866zM50.361 29.093c0-.853.703-1.547 1.568-1.547.864 0 1.568.694 1.568 1.547v22.423H50.36V29.093zm0 23.969h3.136v2.32H50.36v-2.32zm-7.84 3.866h18.815c1.023 0 1.894.646 2.218 1.546h-23.25a2.355 2.355 0 0 1 2.217-1.546zm2.352 15.464c-2.161 0-3.92-1.735-3.92-3.866V60.02h3.92v8.505c0 1.514.635 2.882 1.654 3.866h-1.654zm16.463 0c-3.026 0-5.488-1.735-5.488-3.866h-1.567c0 1.544.337 2.898.899 3.866h-4.82c-2.16 0-3.92-1.735-3.92-3.866V60.02h12.544v3.092h1.568v-3.092h2.352v8.505c0 1.513.633 2.883 1.65 3.866h-3.218z"/>
            <path d="M58.984 64.66h1.568v1.546h-1.568zM31.545 65.433h-1.568c0 1.386.338 2.696.937 3.854-2.028-1.966-3.288-4.7-3.288-7.72h-1.568c0 6.821 5.627 12.371 12.543 12.371v-1.546c-3.89 0-7.056-3.122-7.056-6.959zM69.96 72.392h3.92v1.546h-3.92z"/>
            <path fill-rule="nonzero" d="M33.113 63.887c0 1.279 1.056 2.32 2.352 2.32 1.297 0 2.352-1.041 2.352-2.32 0-1.28-1.055-2.32-2.352-2.32-1.296 0-2.352 1.04-2.352 2.32zm3.136 0a.78.78 0 0 1-.784.773.78.78 0 0 1-.784-.773.78.78 0 0 1 .784-.774.78.78 0 0 1 .784.774zM33.113 54.608c1.73 0 3.136-1.387 3.136-3.092 0-1.706-1.406-3.093-3.136-3.093-1.73 0-3.136 1.387-3.136 3.093 0 1.705 1.407 3.092 3.136 3.092zm0-4.639c.865 0 1.568.694 1.568 1.547 0 .852-.703 1.546-1.568 1.546a1.559 1.559 0 0 1-1.568-1.546c0-.853.704-1.547 1.568-1.547z"/>
            <path d="M29.977 62.34h1.568v1.546h-1.568zM26.058 58.474h1.568v1.546h-1.568zM26.058 55.381h1.568v1.546h-1.568z"/>
        </g>
    </g>
</svg>
