<svg xmlns="http://www.w3.org/2000/svg" xmlns:xlink="http://www.w3.org/1999/xlink" width="102" height="102" viewBox="0 0 102 102">
    <defs>
        <circle id="a" cx="50" cy="50" r="50"/>
    </defs>
    <g fill="none" fill-rule="evenodd" transform="translate(1 1)">
        <mask id="b" fill="#fff">
            <use xlink:href="#a"/>
        </mask>
        <use stroke="#CDA79C" xlink:href="#a"/>
        <g fill="#CDA79C" mask="url(#b)">
            <path d="M56.178 48.71v1.735c2.83 0 5.133 2.336 5.133 5.208h1.711c0-3.829-3.07-6.944-6.844-6.944z"/>
            <path fill-rule="nonzero" d="M73.466 69.36l-6.64-6.736a22.655 22.655 0 0 0 4.752-13.915c0-12.443-9.98-22.566-22.245-22.566S27.09 36.266 27.09 48.709c0 12.444 9.979 22.567 22.244 22.567 5.173 0 9.935-1.805 13.717-4.82l6.64 6.736c.52.528 1.204.792 1.888.792.683 0 1.367-.264 1.888-.792a2.709 2.709 0 0 0 .782-1.916c0-.724-.277-1.404-.782-1.915zM55.322 28.786c7.288 2.259 12.861 8.528 14.22 16.26a5.647 5.647 0 0 1-3.098-5.064c0-.836-.458-1.588-1.195-1.962l-.808-.41a2.127 2.127 0 0 0-2.104.096 2.187 2.187 0 0 0-1.026 1.866.456.456 0 0 1-.452.459h-1.366c-2.3 0-4.17-1.898-4.17-4.231v-7.014zm-1.71-.449V35.8c0 3.29 2.638 5.967 5.881 5.967h1.366c1.193 0 2.163-.984 2.163-2.195 0-.23.15-.349.214-.389a.445.445 0 0 1 .44-.02l.808.41c.154.078.25.235.25.41 0 3.258 2.051 6.075 5.06 7.057.044.552.073 1.108.073 1.67 0 4.768-1.592 9.165-4.259 12.68l-.54-.55a10.452 10.452 0 0 0 1.376-5.186c0-5.743-4.605-10.415-10.266-10.415-1.61 0-3.13.388-4.487 1.061 1.939-5.787-.302-15.114-1.205-18.386a20.18 20.18 0 0 1 3.125.423zm-4.137 2.556c1.19 5.224 2.216 12.976-.2 16.53l-2.439-2.473 2.64-14.057zM31.773 48.853l13.854-2.677 2.438 2.474c-3.502 2.448-11.142 1.41-16.292.203zm9.149 3.019l-1.377 1.956a2.613 2.613 0 0 0-.478 1.513v3.784a.863.863 0 0 1-.856.868h-.704a.855.855 0 0 1-.748-.446l-3.66-6.682a.883.883 0 0 1-.09-.252l-.353-1.788c2.404.515 5.38.993 8.266 1.047zm-5.966-5.401c.95-6.376 5.886-11.383 12.171-12.348L45.18 44.495l-10.224 1.976zm13.338-18.566l-.833 4.439c-7.5.87-13.402 6.857-14.26 14.466l-4.375.845c.526-10.649 8.971-19.216 19.468-19.75zm1.04 41.635c-10.936 0-19.9-8.718-20.5-19.662.523.149 1.197.33 1.995.527l.502 2.547c.052.265.143.518.273.755l3.66 6.682a2.56 2.56 0 0 0 2.243 1.34h.704c1.415 0 2.567-1.168 2.567-2.604V55.34a.87.87 0 0 1 .16-.504l2.12-3.013c1.397-.094 2.723-.323 3.903-.73a10.457 10.457 0 0 0-1.05 4.559c0 5.744 4.606 10.416 10.267 10.416a10.08 10.08 0 0 0 5.113-1.397l.541.548c-3.465 2.706-7.798 4.32-12.499 4.32zm6.844-5.207c-4.718 0-8.556-3.894-8.556-8.68s3.838-8.68 8.556-8.68c4.717 0 8.555 3.894 8.555 8.68s-3.838 8.68-8.555 8.68zm6.973-.23l-.427-.433a10.43 10.43 0 0 0 1.356-1.377l.428.434c-.43.48-.884.94-1.357 1.377zm9.105 7.861a.95.95 0 0 1-1.357 0l-6.538-6.633c.471-.44.924-.898 1.357-1.377l6.538 6.634a.974.974 0 0 1 .281.688c0 .26-.1.505-.28.688z"/>
            <path d="M51.044 55.653c0-1.411.548-2.732 1.542-3.72l-1.198-1.24a6.938 6.938 0 0 0-2.055 4.96c0 3.829 3.07 6.944 6.845 6.944V60.86c-2.83 0-5.134-2.336-5.134-5.208z"/>
        </g>
    </g>
</svg>
