<svg xmlns="http://www.w3.org/2000/svg" xmlns:xlink="http://www.w3.org/1999/xlink" width="102" height="102"><defs><circle id="a" cx="50" cy="50" r="50"/></defs><g fill="none" fill-rule="evenodd" transform="translate(1 1)"><mask id="b" fill="#fff"><use xlink:href="#a"/></mask><use stroke="#CDA79C" xlink:href="#a"/><g fill="#CDA79C" fill-rule="nonzero" mask="url(#b)"><path d="M71.6 34.8H59.178A11.189 11.189 0 0 0 50 30v-1.6a2.4 2.4 0 0 0-2.4-2.4H28.4a2.4 2.4 0 0 0-2.4 2.4V38a2.4 2.4 0 0 0 2.4 2.4h1.76l2.426 2.913a.8.8 0 0 0 1.23 0L36.24 40.4h2.6c-.02.266-.042.53-.042.8v1.6a.74.74 0 0 0 .898.785 12.73 12.73 0 0 0 2.071 5.595 3.2 3.2 0 0 1-2.865-2.38h.698v-1.6H38a.8.8 0 0 0-.8.8 4.806 4.806 0 0 0 4.8 4.8h1.04c.36.39.742.755 1.147 1.097.068.057.141.105.21.16v2.967l-6.652 2.218a.8.8 0 0 0-.543.675l-1.6 15.2A.8.8 0 0 0 36.4 74h27.2a.8.8 0 0 0 .795-.88l-1.6-15.2a.8.8 0 0 0-.542-.675L55.6 55.024v-2.967c.07-.055.142-.103.21-.16A12.72 12.72 0 0 0 59.78 46h.78l2.426 2.913a.8.8 0 0 0 1.23 0L66.64 46h4.96a2.4 2.4 0 0 0 2.4-2.4v-6.4a2.4 2.4 0 0 0-2.4-2.4zm-32.534 4h-3.2a.8.8 0 0 0-.615.287L33.2 41.55l-2.051-2.463a.8.8 0 0 0-.615-.287H28.4a.8.8 0 0 1-.8-.8v-9.6a.8.8 0 0 1 .8-.8h19.2a.8.8 0 0 1 .8.8v1.728a11.216 11.216 0 0 0-9.334 8.672zM44.4 72.4h-7.112l1.454-13.804L44.4 56.71V72.4zm1.6 0V61.777l2.835-.945-2.007 7.36a.8.8 0 0 0 .056.568l1.822 3.64H46zm0-12.31v-1.596l1.914.96L46 60.09zm2.452 8.226L50 62.64l1.546 5.676L50 71.411l-1.548-3.095zM54 72.4h-2.706l1.821-3.642a.8.8 0 0 0 .056-.568l-2.007-7.36 2.836.947V72.4zm0-12.31l-1.914-.64L54 58.494v1.596zm0-4.49v1.106l-4 2-4-2v-3.642a9.01 9.01 0 0 0 8 0V55.6zm7.258 2.996L62.712 72.4H55.6V56.71l5.658 1.886zm-6.473-7.929a7.468 7.468 0 0 1-9.395.133h3.81v-1.6h-5.428a11.126 11.126 0 0 1-2.535-6.544 32.815 32.815 0 0 1 10.45-4.475A5.61 5.61 0 0 0 57.2 42.8h1.562a11.109 11.109 0 0 1-3.977 7.867zM57.2 41.2a4.005 4.005 0 0 1-4-4 .8.8 0 0 0-.974-.782l-.48.108a34.415 34.415 0 0 0-11.346 4.76V41.2a9.6 9.6 0 0 1 19.2 0h-2.4zm15.2 2.4a.8.8 0 0 1-.8.8h-5.334a.8.8 0 0 0-.615.287L63.6 47.15l-2.051-2.462a.8.8 0 0 0-.615-.288h-.76a12.78 12.78 0 0 0 .188-1.6h.038a.8.8 0 0 0 .8-.8v-.8a11.113 11.113 0 0 0-1.096-4.8H71.6a.8.8 0 0 1 .8.8v6.4z"/></g></g></svg>