<svg xmlns="http://www.w3.org/2000/svg" width="40" height="40"><path fill="#FFF" d="M19.984 0C8.964 0 0 8.965 0 19.984c0 10.788 8.594 19.6 19.295 19.966v.017h1.378v-.017c10.7-.365 19.294-9.178 19.294-19.966C39.967 8.964 31.003 0 19.984 0zM1.378 19.984c0-5.997 2.854-11.336 7.273-14.741.145.787.462 1.99 1.107 3.868.602 1.752-.314 2.401-1.985 3.398-1.297.774-2.766 1.651-2.7 3.474.11 3.053.183 5.07 3.157 6.276.362.147.475.283.486.34.081.463-1.235 1.656-1.943 2.297-.376.34-.742.673-1.044.983-.939.962-1.522 2.345-1.856 3.392a18.483 18.483 0 0 1-2.495-9.287zM19.294 38.57c-5.929-.217-11.156-3.22-14.411-7.74.125-.593.653-2.781 1.832-3.99.285-.292.63-.603.984-.924 1.272-1.154 2.589-2.346 2.373-3.559-.106-.6-.552-1.063-1.324-1.376-2.056-.834-2.181-1.806-2.298-5.05-.035-.958.748-1.475 2.03-2.24 1.509-.9 3.576-2.134 2.582-5.03-.997-2.901-1.13-3.988-1.142-4.315a18.48 18.48 0 0 1 9.374-2.951v9.694c-1.123.151-3.323.646-4.068 2.246-.28.6-.732 1.065-1.131 1.475-.635.651-1.506 1.544-.658 2.67.809 1.074 4.21 1.979 5.857 2.364V38.57zm0-20.144c-2.148-.526-4.387-1.285-4.755-1.774-.103-.136-.137-.182.543-.88.453-.465 1.016-1.043 1.394-1.856.398-.855 1.836-1.267 2.819-1.43v5.94zm1.379 13.926c6.516-.351 11.714-5.756 11.714-12.37 0-6.613-5.198-12.018-11.714-12.37v-2.77c8.04.362 14.47 7.014 14.47 15.143 0 8.128-6.43 14.78-14.47 15.142v-2.773zm.02-1.366V8.98c5.749.357 10.316 5.156 10.316 11.003 0 5.848-4.567 10.647-10.316 11.004zm-.02 7.585v-2.068c8.8-.363 15.849-7.632 15.849-16.52s-7.049-16.157-15.85-16.52V1.396c9.941.364 17.917 8.56 17.917 18.588s-7.976 18.223-17.916 18.588z"/></svg>