<svg xmlns="http://www.w3.org/2000/svg" width="7573.334" height="2142.662" viewBox="0 0 78889 22319" shape-rendering="geometricPrecision" text-rendering="geometricPrecision" image-rendering="optimizeQuality" fill-rule="evenodd" clip-rule="evenodd"><defs><style>.fil0{fill:#1a6bac;fill-rule:nonzero}</style></defs><g id="Layer_x0020_1"><path class="fil0" d="M10164 524c190-190 443-295 712-295l30 1c539 16 978 467 978 1006 0 269-105 522-295 712s-443 295-712 296l-29-1c-540-16-979-467-979-1007 0-269 104-522 295-712zm713-535h-6c-331 1-643 131-877 366-235 235-365 549-365 882 1 668 544 1227 1211 1247l36 1c335 0 648-130 884-366s365-549 365-882c0-668-544-1227-1212-1246l-34-1zm64212 13230c-146 366-527 622-927 622h-26c-125-4-245-32-358-85l-116-55 1-129c10-768 10-1557 1-2413l-2-157 153-39c466-120 865-14 1101 290 204 263 311 669 311 1172l2 42c19 208-31 476-141 752zm18-2113c-212-274-514-424-873-434l-41-1c-199 0-414 40-638 121-124 44-134 67-132 179 12 947 12 1818 1 2665-2 147 41 219 177 298 152 89 330 138 515 144h34c505 0 983-316 1164-770 126-316 180-617 157-871 0-567-125-1025-362-1330z"/><path class="fil0" d="M75297 16813c-198 27-389 40-568 40-738 1-1334-227-1802-692l-88 287c-3 44-11 84-27 122-56 135-178 203-361 203l-1862-3c-148-4-258-90-297-225l-7-44-7-1644c-4-1215-9-2429-9-3644-1-1401 3-2802 6-4202l16-1876c1-33 9-65 26-93l7-12c37-61 104-96 175-90h1l2648 1c111 0 210 69 248 173l1 2c10 29 16 59 16 89l4 840c5 711 10 1445 4 2167 0 42 1 75 2 99 17-7 36-16 59-28 330-165 690-255 1069-268 214-39 510-39 768 3 1452 106 2677 1200 3116 2786l32 115c41 149 81 290 115 461l58 321-4 16c184 1904-729 4745-3338 5094zm3601-4532v-156c-2-157-11-311-26-459l-55-335c-34-173-77-326-118-474l-32-115c-464-1676-1765-2838-3315-2961-282-43-578-43-818-6-226 12-426 42-620 92l-251 66 1-259c1-511-3-1021-6-1532l-5-964c0-16-9-60-19-106-17-73-27-145-69-208l-16-22c-63-92-140-140-247-140l-2786-2c-174 0-335 92-422 242l-1 2-1 1c-30 87-45 178-46 270l-10 1795c-4 1400-7 2802-7 4202 1 1215 5 2430 10 3644l6 1690 19 72c67 229 267 383 509 390h16l1453 3 410 1c289 0 444-135 524-248l108-152 159 96c568 342 1247 452 2086 342 2513-336 3542-2812 3569-4770zm-13119 1532l-96 64c-39 18-64 27-89 36l-24 9c-217 61-396 87-570 84h-8l-16-3c-38 6-83 10-126 9-118-3-203-52-253-143-41-75-49-149-25-219 4-20 15-50 31-78l24-27c42-29 91-54 145-74l27-6c46-14 100-22 152-21l21 2c34-2 60-3 95-3l113-2 58 3c62 4 123 7 182 13 94 9 162 19 210 29l183 35-35 290zm-335-593c-65-6-131-10-189-13l-77-5c-24 2-68 2-112 3-144 2-266 3-375 43-283 105-458 315-434 524 31 256 174 400 464 466 376 85 737 22 1216-211 46-22 56-38 63-75 55-301 51-474-16-562-66-88-233-140-539-170zm-13418 598l-96 64c-41 19-67 28-93 38l-20 7c-217 61-396 87-570 85h-7l-16-3c-39 6-84 10-127 9-118-3-203-52-253-143-41-76-49-149-24-219 3-19 15-48 30-78l25-27c42-29 91-54 146-74l26-6c46-14 100-22 152-21l19 2c38-1 64-2 97-3l113-2 58 3c72 4 127 8 182 13 95 9 162 19 211 29l183 35-35 290zm-335-593c-65-6-130-10-189-13l-78-5c-24 2-68 2-112 3-144 2-266 3-375 43-285 105-459 315-434 524 31 256 174 400 463 466 92 21 182 32 273 35 282 8 581-70 943-246 46-22 56-38 63-75 55-301 51-474-16-562-66-88-233-140-539-170zM18151 6802c-47 8-55 16-56 17-10 13-10 93-9 140v31c1 844 0 1688-1 2532v283c-3 2031-6 4128 17 6190 7 617-218 1188-634 1609-425 430-1048 677-1667 659-137-4-271-21-400-49 115 247 226 483 338 718 113 238 227 476 340 713l287 601c157 329 224 593 212 829l2 22-4 41c-151 692-850 940-1283 939l-8306-5c-488-14-1061-314-1164-940-8-73-11-116-11-162 3-184 54-345 113-498-45-4-88-11-130-17-39-6-77-12-116-15-74-7-148-17-223-27-63-8-111-14-158-20-80-8-164-20-247-52-1690-233-3347-1454-4204-3105-737-1293-811-3032-186-4428l70-155h1c479-1072 1289-1964 2409-2652 427-262 558-497 540-966-37-959-27-1934-18-2876l7-751c1-111-15-139-17-142 1 1-14-8-69-10h-83c-208-6-376-73-492-190-102-103-158-238-158-380 1-361 268-595 678-596 1515-3 3030-3 4545-2l377 1c241 7 419 95 528 260 116 176 131 390 39 571-100 198-303 325-545 339-220 13-220 13-220 225l1 1110c1 949 3 1899-2 2848-1 184 45 266 190 336 300 145 574 333 816 511 0-136 0-267-1-396h-35c-100-3-201-26-298-68-196-84-302-243-299-447 3-192 101-350 276-444 112-60 220-65 321-65l3970-2 2 8c18 1 33 3 45 5 378 64 468 294 478 477 9 176-55 407-411 507-262 73-262 73-253 342 24 687 13 1383 1 2056l-1 60c-13 750 183 1490 597 2264 26 49 52 98 77 147l2-7731c0-184 0-184-69-197-197-38-315-210-309-449 7-233 124-404 321-470 100-34 204-38 293-38 666-1 1331-2 1996-2-82-29-156-70-222-123-178-143-280-356-280-583 0-414 337-751 750-751h22c72 2 141 14 207 36-40-91-62-191-62-295 0-200 78-388 220-530s330-220 531-220h4c420 12 747 348 747 750 0 201-78 389-220 531s-330 220-531 220h-22c-73-2-143-15-209-37 30 70 50 146 57 226 4 32 6 51 6 72 0 226-103 438-282 583-67 54-140 95-218 123h1190l252 1c59 2 147 7 234 35 190 61 308 218 324 432 19 254-106 450-311 486zm-2532-3446h-22c-402-12-729-348-729-750 2-136 35-262 100-374 133-233 383-377 650-377l9-2 13 2c401 12 728 348 729 750 0 414-337 751-751 751zm2592 2299c-89-29-184-44-301-47l-793-1 57-246c8-33 14-67 18-100l17-140 88-20c418-94 742-419 807-808 47-285-29-566-214-791-262-318-697-444-1090-304l-401 143 146-400c71-193 82-371 36-561-68-280-250-522-488-647-142-74-292-115-446-119-365-11-706 180-887 497-86 148-130 315-131 496 0 529 431 972 961 988h28c106 0 213-20 329-61l402-143-147 400c-30 81-48 150-56 217l-17 140-137 31c-455 103-771 498-771 961 0 74 9 148 27 220l60 247-1341 1c-108 0-236 6-370 51-294 99-475 357-483 690-7 265 97 486 285 606l93 59-1 1658-227-32c-26-4-51-6-78-7l-77 1-3885-5c-90 0-258 0-432 93l-295 157v-334c1-461 0-921 0-1382l-1-1181 1 2-1-471 156-36c49-11 101-29 162-56l59-26c165-72 297-210 362-378 100-259 60-649-84-841-155-207-394-317-710-326l-370-1c-1514-1-3027 0-4540 2-530 1-916 352-918 834-1 208 80 404 229 553 117 117 262 196 432 234l158 35-6 640c-9 954-18 1935 18 2896 15 385-69 533-426 752-1048 643-1838 1464-2348 2438l-73 139h-2l-151 337c-655 1464-582 3281 188 4630 886 1708 2590 2976 4342 3232 129 39 221 51 298 60l325 40-18 193c-3 33-5 68-5 102-1 55 3 107 11 178l5 33c124 755 809 1118 1393 1135l42 1 8270 4c632 0 1355-384 1516-1118l15-67-3-102c-4-275-77-549-238-889l-773-1619 220-20c357-32 675-117 946-252 867-434 1377-1279 1366-2259-23-2049-20-4140-17-6162 1-911 3-1812 2-2712l-1-108 91-59c199-130 305-374 284-652-23-311-206-552-489-643z"/><path class="fil0" d="M9476 5573c274-274 637-425 1024-425l43 1c775 22 1406 672 1406 1448 0 386-151 750-424 1025-274 274-638 425-1024 425l-42-1c-776-22-1408-672-1408-1448 0-387 151-751 424-1025zm1831-1371c0-269 104-522 295-712 190-190 443-295 712-296l30 1c539 16 978 467 978 1007 0 269-105 522-295 712s-443 295-712 295l-29-1c-539-16-979-467-979-1006zM8888 6095l-7 21c-98 317-97 652 2 969 182 578 648 1014 1222 1152l92 22c196 47 405 48 602 1 416-99 757-302 994-587 466-560 527-1322 155-1941l-215-357 448 61c369 51 746-83 1015-353 305-306 427-728 335-1158-99-466-480-845-946-943-424-90-854 36-1155 337-235 236-365 549-365 882 0 170 35 336 103 492l164 379-399-106c-132-35-266-55-398-59-348-10-686 89-979 288-199 134-368 310-490 511-79 127-138 257-179 388zm57813 10642c-86-35-161-115-199-212l-139-351c-429 399-893 626-1416 694-184 24-371 36-557 36-42 0-84-1-126-2-1171-34-2142-539-2661-1385-484-787-610-1735-338-2534 264-779 864-1366 1735-1699 971-371 1975-422 2937-147-11-86-33-161-70-228-62-141-175-260-329-349-166-112-388-171-662-179l-65-1c-365 0-818 86-1275 244l-731 346c-56 27-119 34-180 21l-49 6-159-155c-23-37-41-64-54-88-225-428-429-813-645-1197-184-326 59-502 139-560 1011-737 2048-1095 3168-1095 164 1 323 3 478 7 484 14 1054 55 1611 256 1229 442 2015 1500 2005 2696 65 265 63 555 62 835v1027c1 1050 2 2100-1 3150l3 574c1 88-33 171-96 233-61 62-144 97-232 97h-436c-285 9-578 5-879 1h-671c-48-2-86-8-122-20l-46-19zm-5866-816l1 420c1 104 1 380-302 424-328 48-715 98-1102 98-42 0-83-1-124-2-686-20-1232-202-1719-571-642-488-985-1214-992-2098-16-2186-11-4410-5-6559l1-657h3c1-491 4-983 8-1474v-256c0-81 32-158 89-216s133-89 214-89l2568 1c176 5 306 139 306 305l-1 710c1 337 1 673 1 1010h-1c2 1543 3 3087 3 4630l1 2032c1 678 1 678 657 737 264 23 397 166 394 424-4 377-3 754-2 1131zm6698 1095c266 5 604 9 880 0h443c152 0 295-60 402-167 108-108 166-252 166-404l-3-571c2-995 1-1990 1-2988v-1185c2-280 3-570-57-843-14-1311-865-2450-2169-2919-589-212-1184-256-1689-270-158-5-318-6-482-7-1173 0-2255 373-3309 1141-447 326-294 718-207 872 217 385 421 769 645 1195 13 25 32 55 51 81l223 327-178 113c-733 465-1062 1081-1210 1515-110 323-162 688-150 1055l10 277-266-78c-53-16-109-26-168-31-121-11-204-21-262-30l-160-24-10-162c-4-61-6-150-6-282l-2-2120c-1-1505-1-3011-3-4513h-1c-1-346-1-692-1-1039l1-711c0-292-237-537-529-545l-2584-1c-144 0-280 57-382 160-103 103-159 240-159 385l-1 253c-3 411-5 823-7 1234l-7 901c-5 2134-11 4341 5 6559 6 961 382 1752 1086 2288 521 396 1130 599 1862 620l260 6 429-11c302-8 599-83 868-220l4-2c139-114 210-293 209-533l-1-1194 368 563c325 498 780 874 1354 1120l259 111c15 3 29 10 42 18l5 2c347 102 352 90 700 152 189 30 379 45 571 39 205-7 430-25 604-47 388-50 759-188 1103-409l160-103 111 154c66 91 155 164 259 212l71 28c50 16 110 27 171 28h680zm-25595-5428c224-529 702-781 1237-650l154 38-1 158c-2 216-2 432-2 648l1 1973-99 48c-39 19-87 31-229 41-44 3-86 5-128 5l-44-1c-493-14-810-274-942-772-150-562-132-1048 53-1488zm887 2500l52 1c45 0 91-2 138-5 364-25 516-140 547-443l5-1659c-1-342-2-684 3-1026 2-127-15-135-77-162-183-81-370-125-554-130h-37c-523 0-965 310-1184 831-207 490-227 1027-64 1642 161 604 566 933 1173 950zm8370 2783c-184 24-372 36-557 36-42 0-84-1-126-2-1172-34-2141-539-2660-1385-484-788-610-1735-339-2534 265-779 864-1367 1735-1700 969-371 1973-421 2937-146-11-88-34-162-70-228-62-141-175-260-329-349-167-112-388-172-663-180l-64-1c-365 0-817 86-1275 244l-732 346c-52 25-115 33-174 22l-48 8-174-171c-21-32-36-56-47-78-225-427-430-812-645-1194-183-326 60-502 139-560 1012-737 2048-1096 3170-1095 163 1 322 3 477 7 484 14 1053 55 1610 256 1229 442 2015 1500 2005 2696 65 267 63 557 62 837v975c1 1067 2 2133-1 3200l3 574c1 87-33 170-95 232-61 62-144 97-233 97h-435c-293 9-608 5-880 0h-670c-48-1-85-8-121-19l-44-18c-89-37-165-117-203-214l-138-350c-429 399-893 626-1416 694zm1295-272l111 155c65 90 153 162 261 211l92 33c41 12 93 19 145 21h682c307 5 625 8 881 0h442c153 0 296-60 403-168s166-251 164-402l-3-572c2-1033 2-2064 1-3098l-1-1077c2-280 3-570-56-841-15-1311-865-2450-2169-2919-588-212-1183-255-1688-270-158-5-319-6-483-7-1173-1-2256 372-3310 1141-447 326-294 719-207 872 228 404 447 821 641 1188 7 13 14 25 20 37l2 1 18 25 80 144 231 161-253 161c-499 317-870 739-1104 1255l-35 77c-164 362-249 754-249 1151v12c0 363 71 724 209 1060l78 189c83 200 162 361 252 508 583 949 1675 1499 2992 1501 196 0 394-13 588-37 401-52 762-185 1103-406l161-104z"/><path class="fil0" d="M38409 13038c-40-393-41-676-2-1130 102-1246 543-2219 1348-2975 577-542 1248-844 1995-897 277-48 610-50 919 0h4c280 8 554 78 882 224l1-408c2-788 3-1575 10-2363v-256c0-81 32-158 90-216s135-89 216-89l2586 1c177 5 308 139 308 305v710c4 3431 6 6862 4 10292l1 34c6 113 14 246-114 419l-58 79-263 6c-321 8-643 16-964 16-356 0-669-11-956-33l-59-14c-92-44-149-105-178-182-78-116-101-259-118-365-5-29-10-55-16-79-317 244-777 542-1350 654-238 47-478 70-714 70-34 0-68-1-102-2-1390-40-2554-896-3115-2289-197-489-271-878-355-1513zm3572 4044c249 0 505-25 760-74 328-64 644-186 966-373l179-104 98 183c55 103 141 185 252 240l56 27 121 19c458 33 1046 38 1930 16l380-9 128-173c180-244 168-440 161-558l-2-34v-1253l5 39v-2679l-6-39v-1442c0-1641 0-3281-2-4922l1-711c0-292-239-537-533-545l-2602-1c-145 0-282 57-385 160s-160 240-160 385v253c-6 721-8 1440-10 2164l-1 248-242-53c-130-28-257-44-375-48-355-50-671-49-971 0-808 64-1524 387-2137 962-706 663-1158 1522-1344 2552l-53 296c-49 271-73 546-73 821v8c0 256 21 512 64 765l59 352c71 424 155 729 299 1088 613 1521 1913 2447 3440 2441zm-15558-1559l-347 1020c-50 145-186 243-339 243l-1731 1-1731-1c-153 0-289-98-339-243l-347-1020c-323-930-646-1859-964-2791-351-1027-697-2056-1043-3085l-267-796c-34-101-61-204-88-307l-35-133c-29-114-15-209 41-282 34-44 102-97 233-101 22-1 44 0 67 2l24 2c834-4 1667-3 2502-1 103 0 345 0 432 266l849 2980 99 338c57 195 112 390 163 583l400 1406 3-10 3 10 400-1406c51-193 106-388 163-583l99-338 849-2980c87-266 328-266 432-266 835-2 1669-4 2502 1l24-2c22-2 45-3 67-2 131 4 199 57 233 101 56 73 70 167 41 282l-35 133c-27 103-53 206-87 307l-267 796c-346 1029-692 2058-1043 3085-318 931-641 1861-964 2791zm1151-2617l1304-3838 47-139c36-106 64-215 92-324l36-136c60-235-13-394-85-486-55-70-179-189-401-195-40 0-62 0-73 2-308 2-585 2-859 1h-135c-458 0-917 1-1379 2h-168c-350 0-567 147-664 447l-945 3309c-50 169-98 338-142 501l-193 711-3-10-3 10-193-711c-44-163-91-332-142-501l-945-3309c-97-300-314-446-664-447h-168c-462-1-921-2-1379-2h-135c-274 0-551 1-859-1-11-2-33-2-73-2-222 6-346 125-401 195-72 92-145 251-85 486l36 136c28 108 57 217 92 324l47 139 1304 3838h-8c295 861 593 1722 892 2582l386 1131c83 243 311 406 567 406l1730 14 1730-14c256 0 484-163 567-406l386-1131c299-860 598-1721 892-2582h-7zm4277-106c-2-10-4-21-6-31-2-12-4-24-6-37-1-4-1-8-2-11-9-60-15-120-18-180v-9c-1-18-1-35-2-53v-62c0-18 1-35 2-53v-9c3-60 9-120 18-180 1-4 1-8 2-11 2-12 4-24 6-37 2-10 4-21 6-31 1-5 2-10 3-14 37-179 102-358 197-533 25-58 52-109 82-154 27-41 55-76 85-104 213-235 528-368 867-356 386-13 741 161 950 460 21 29 40 60 57 92 164 296 249 618 253 941v42c-5 323-90 645-253 941-18 32-37 62-57 92-4 6-9 13-14 19-32 48-66 89-102 119-212 213-513 332-834 321-331 11-640-115-853-341-52-46-101-111-144-193-15-28-29-58-42-89-91-172-155-348-191-523-1-5-2-10-3-14zm1187 1403l41-1h10l41 1c498 0 936-253 1171-677 198-357 295-717 292-1079 3-361-95-721-292-1079-235-424-673-677-1171-677l-41 1h-10l-41-1c-498 0-936 253-1171 677-198 357-295 717-292 1079-3 361 95 721 292 1079 235 424 673 677 1171 677z"/><path class="fil0" d="M32208 7903c291-47 585-71 876-72 291 1 586 25 877 72 1402 225 2541 990 3207 2155 713 1250 806 2841 250 4258-618 1573-2219 2624-4079 2678-50 2-100 2-150 2-34 0-69 0-103-1-34 1-69 1-103 1-50 0-100-1-150-2-1860-54-3461-1105-4079-2678-557-1417-463-3008 250-4258 665-1165 1804-1930 3207-2155zm-3816 3011c-153 450-231 921-231 1396v108c-1 695 123 1363 368 1985 671 1707 2428 2834 4454 2832 34 0 68 0 103-1 34 1 69 1 103 1 2026 2 3783-1125 4454-2832 245-622 368-1290 368-1985v-108c0-475-79-947-231-1396l-80-237c-161-474-402-916-713-1307l-5-6c-726-915-1757-1502-2980-1698-304-49-611-74-914-75-303 1-611 26-914 75-1223 196-2254 783-2980 1698l-5 6c-311 392-552 834-713 1307l-80 237zM15639 1936v2-2zM6127 6227c32 8 65 11 97 15 141 17 285 4 447 15 97-9 209 4 326-5 37-3 75-8 113-17 165-40 266-121 260-300-7-180-121-277-280-285-31-2-61-1-92-2-281-11-562-9-843 2-171 7-271 130-275 292-4 152 89 246 249 285zm569 2686c44 0 88 1 132 2-73-2-132-4-132-2zm212 5c-27-1-54-2-80-2 27 1 53 2 80 2z"/><path class="fil0" d="M7117 8923c-42-2-84-2-126-3-28-1-55-1-83-2 78 2 155 5 190 5-131 3-610-12-708-5-69 2-139 2-208 4-7 0-12 3-18 4-159 15-253 133-257 288-4 152 89 246 249 285 81 20 162 24 245 25 172 17 345 16 517 4 21-1 41-4 72-6 38-3 76-6 115-9 7-1 13-1 20-2 4 0 6-2 10-3 1 0 3 0 4-1l9-3c39-7 74-18 102-35 98-48 154-127 149-262-7-180-121-277-280-285zm1639 8378h-1c-18 0-33 4-50 5-160 12-256 81-328 236-492 1060-992 2117-1489 3174-156 332-124 385 248 386 1344 1 2687-1 4031-1 1361-1 2722 0 4083-3 335-1 374-64 231-366-507-1072-1017-2143-1521-3216-67-142-157-202-306-211-12-1-22-3-35-3-1621 5-3242 5-4863-2zm1698-5512c107 153 287 257 480 257 2 0 5 1 7 1 299-4 559-273 556-575-3-299-270-568-562-568v-1 1c-2 0-4-1-6-1-184 2-369 124-479 285-65 96-104 205-99 312 4 105 43 204 102 288zm665 1478c-15 226 120 382 342 394 242 13 410-128 420-351 9-204-182-420-373-423-1 0-2 1-3 1v-1 1c-186 0-373 183-386 379zm-179 1281c-183-1-398 227-394 417 5 200 186 364 400 360 208-4 389-183 382-380-7-184-215-397-387-397zm1485 2191c217 0 315-121 307-294-7-167-109-291-299-297-3 0-5 2-8 2v-2 2c-166 0-320 154-295 315 26 171 120 286 295 274zm-2463-274c165-13 257-116 262-267 4-129-76-207-194-235-18-4-34-10-53-12-11-1-19 3-29 3h-1c-30 0-56 7-80 15-88 30-136 108-145 213-14 163 80 255 241 283zm6940-7668c-26-3-50-7-83-7-256 5-511 7-767 8-310 1-619-1-929-7-33-1-66 0-100-1-57-1-103 3-143 12-127 29-173 115-171 300 12 1171 6 2342 7 3513h-2c1 1145 7 2290-4 3435-2 238 58 442 172 639 270 468 802 687 1337 552 488-123 885-606 886-1092 2-2360-2-4719 4-7079 0-187-63-257-208-273zm-411-821c189 4 298-111 319-277-4-224-137-312-301-320-7 0-12 2-19 2v-3 3c-164 1-276 101-277 284-1 182 95 306 278 310zm-1197-460c178-3 261-107 261-248-1-65-15-116-34-160-42-96-122-144-227-144v-2 2c-5 0-10-2-16-1-108 5-189 57-232 144-20 41-34 88-33 145 4 179 108 267 280 264zm44 709c-1 161 107 238 241 248 159 12 261-88 262-249 1-148-90-233-245-253-142 23-257 78-257 253zM6996 6601c-5 0-9-2-14-2h-365c-107 0-194 72-194 161v35c0 89 87 161 194 161h365c5 0 9-2 13-2 101-6 181-74 181-159v-35c0-85-80-152-180-159zm-2 840c-4 0-8-2-12-2h-364c-107 0-194 72-194 161v35c0 69 54 127 128 150 21 6 43 11 67 11h365c4 0 7-2 11-2 102-5 184-73 184-159v-35c0-85-81-154-183-159zm-2 820c-3 0-6-2-9-2h-364c-107 0-194 72-194 161v35c0 89 87 161 194 161h365c3 0 5-1 8-1 103-4 186-73 186-160v-35c0-86-82-155-185-159zm3884-6218h1c446 0 807-362 807-808s-361-807-807-807h-1c-446 0-807 362-807 808s361 807 807 807zm1438 2966h1c446 0 807-362 807-808s-361-807-807-807h-1c-446 0-807 362-807 808s361 807 807 807zm3305-2953c-204 0-382 112-477 277-45 79-72 170-73 267v6c0 304 247 550 551 550s550-247 550-551-247-550-551-550zm508 3629h2c25 4 50 6 76 6h6c130 0 248-47 343-123 126-101 208-254 208-428 0-18-4-34-5-52-27-279-259-498-545-498-304 0-550 247-550 551 0 173 81 327 206 428 70 56 154 97 246 114 5 1 9 2 14 3zm1002-1004c304 0 550-247 550-551s-247-550-551-550-550 247-550 551 247 550 551 550zm-6629 3166h1c690 0 1249-560 1249-1250 0-689-559-1248-1248-1248h-1c-690 0-1249 560-1249 1250 0 689 559 1248 1248 1248zm64998 5535c-311 781-1298 1132-1999 724-186-108-279-243-276-474 12-886 11-1773-1-2660-3-209 72-301 265-370 1271-452 2183 282 2180 1815 29 304-41 642-170 964zm2918-1728c9 30 19 66 19 66l-11-68-38-232c-40-204-88-362-144-562-419-1515-1568-2539-2956-2642-243-40-485-41-727 0-347 12-682 95-987 247-318 159-353 36-351-252 8-992-5-1984-9-2976v-70c0-4-1-9-3-12-4-7-12-11-21-11l-2678-1c-10 0-20 5-26 14h-1c-3 4-4 10-4 15-4 2015-11 4029-10 6044 1 1759 10 3517 15 5276 15 53 53 80 105 80 620 2 1239 2 1859 4 83 0 151-14 178-79h1c8-20 13-46 12-78 63-204 126-408 202-655 635 830 1508 977 2429 854 2321-311 3181-2635 3186-4381 0-177-5-350-22-513l-19-66zm-17991 2912c-762-68-839-160-840-936-2-2712-20-5424-7-8136 2-257 44-358-89-358l-2649-1c-15 0-29 7-37 19-5 7-7 15-7 23-3 3005-22 6009 1 9014 5 758 275 1456 913 1940 850 646 1817 581 2794 437 134-20 132-125 132-226 0-518-4-1035 2-1553 1-154-51-208-212-223zm-18892-3149c355-842 1214-1171 2041-807 169 74 199 186 196 348-6 467-2 935-2 1402 0 368-3 823-3 1193-14 476-234 695-737 729-803 54-1363-319-1569-1094-157-591-170-1194 73-1772zm1125 5158c577-112 1052-427 1514-817 12 131 63 262 84 392 16 97 36 238 104 320 7 35 26 66 71 88 688 52 1377 29 2065 12 106-143 73-223 74-334 2-3431 0-6861-5-10292h1v-710c0-58-47-105-105-105h-3l-2491-1h-95c-58 0-105 47-105 105v258c-9 1030-9 2059-12 3089-351-182-711-337-1117-346-291-46-582-46-873 2-727 52-1348 352-1872 844-819 768-1195 1744-1285 2846-36 418-40 690 1 1087 83 627 153 994 342 1464 640 1591 2091 2414 3708 2099zm-17184 4050c-3 1-7 1-10 1-10 2-19 3-32 4-8 0-17 1-26 0s-19-2-29-3-21-4-31-7c-11-3-22-6-33-10-22-9-45-19-67-34-11-7-22-14-32-23-10-8-21-17-31-26-9-10-19-19-28-30-9-10-17-21-25-32l-12-17c-4-6-7-12-10-17-7-12-13-23-19-35-11-24-22-48-28-73-3-12-8-24-9-36-2-12-4-23-6-35-1-6-2-11-2-17s-1-11-1-16c0-11-1-21-1-31-1-20 2-38 3-54s5-29 8-40c6-22 10-34 10-34s5 13 11 26c1 4 1 3 3 7 4 10 8 24 14 37 3 7 6 14 9 22s6 15 10 24c4 8 7 17 11 26 2 4 4 9 5 13 2 4 4 9 7 13 4 9 9 18 13 28 4 9 10 18 14 28 5 9 9 19 15 28s11 19 16 28c6 9 12 18 18 28 3 5 6 9 9 14l10 13c2 3 5 6 7 9 4 6 8 12 12 17 7 8 14 17 21 25 15 15 28 32 44 45 15 15 30 26 45 39 8 6 16 10 23 16 7 5 15 11 22 14 15 8 29 18 42 23 13 6 25 13 35 16 20 8 33 14 33 14s-12 4-35 10zm-531-491c3 344 257 620 567 617s558-284 554-628c-3-344-400-827-572-1161-166 338-552 828-549 1172zm47049 465c-11 3-25 4-41 5-9 0-17 1-26 0s-19-2-29-3c-11-1-21-4-32-7s-22-6-33-10c-22-9-45-19-66-34-11-7-23-14-32-23-10-8-21-17-31-26-10-10-19-19-29-30-9-10-17-22-25-32l-12-17c-4-6-7-12-10-17-7-12-14-23-20-35-11-24-22-48-27-73-4-12-8-24-10-36s-4-23-6-35c-1-6-2-11-3-17 0-6-1-11-1-16 0-11-1-21-1-31-1-20 2-38 3-54 2-16 5-29 8-40 6-22 10-34 10-34s6 12 13 33c4 11 8 24 14 37 3 7 6 14 9 22s5 15 10 24c4 8 7 17 11 26 2 4 4 9 5 13 2 4 4 9 6 13 4 9 9 18 13 28 4 9 10 19 15 28s9 19 15 28 11 19 16 28c6 9 12 18 18 28 3 5 6 9 9 14l10 13c6 9 12 18 19 26s14 17 20 25c15 15 29 32 44 45 15 15 30 26 45 39 8 6 16 10 23 16 8 5 15 11 22 14 15 8 29 18 42 23 13 6 25 13 35 16 20 8 33 14 33 14s-12 4-35 10zm-424-873c-8 18-16 36-24 53-18 43-33 84-45 125-22 71-38 140-37 204 1 31 5 61 9 91 2 10 2 21 3 31 51 270 259 472 512 491 15 1 28 5 43 4 309-3 558-285 554-629-3-344-400-827-572-1161-110 225-317 518-443 790zm-41205-893l-497 1-406 766c-99 189-204 418-317 687h-13c-12-249-26-473-42-671l-63-781-510 1-352 857c-79 199-149 397-210 592h-13c-20-202-47-407-80-613l-143-834-510 1 405 2084 497-1 343-865c96-247 168-448 217-602h13c7 204 18 409 31 617l63 849 482-1 736-1301 444-785h-75zm1355 994c-20 95-44 179-72 252s-61 139-100 196c-57 86-122 154-196 203-73 50-146 74-219 74-1 0-1 0-2-1-72-1-127-29-164-85-38-57-57-147-57-269 0-62 5-129 15-201 10-73 25-146 46-221s47-147 78-216c31-70 69-131 113-185s93-97 148-129 117-48 184-49c39 0 75 5 109 15s65 23 93 38 52 32 73 52c21 19 38 38 51 57l-98 469zm413 455l114-552 186-900h-435l-75 207h-9c-66-89-144-154-233-195-87-41-179-61-275-61v-1 1c-2 0-4-1-6-1-107 0-207 20-299 61-92 40-175 96-249 166s-140 153-196 247c-57 95-104 196-143 305-39 108-68 221-87 339s-29 234-29 351c0 109 14 208 41 297s67 165 119 228 115 112 189 146c75 34 158 52 252 51 109 0 221-27 334-80 114-53 220-141 319-263h9c16 102 54 180 115 235s150 83 268 83c82 0 167-9 256-28l88-409c-60 9-111 13-153 13-18 0-27-8-41-12l-33 11-1-20c-3-2-9-1-12-3-21-16-31-44-31-83 0-13 1-31 4-55s7-49 13-76zm1760-2036l-508 1-122 583h-387l-88 420 389-1-218 1059c-10 47-16 88-19 122s-4 63-4 87c0 70 11 133 34 189 22 56 57 103 103 142 47 39 106 68 178 89s157 31 256 31c72 0 148-5 229-15s156-25 225-43l56-285 27-139c-18 4-41 7-60 11-46 9-90 19-144 27-76 11-138 16-187 16-72 0-122-10-151-31s-43-58-43-111c0-17 2-38 5-61 4-24 9-51 16-83l205-1005 441-1h101l56-269 32-150-542 1 120-583zm1862 1229c-27 42-72 80-135 113s-146 60-249 80-231 30-383 31c24-85 57-160 99-225s88-121 141-166c52-45 108-79 168-102 59-23 118-35 175-35 5 0 8 2 12 2 69 2 122 18 158 50 37 34 56 75 56 122 0 44-14 88-41 130zm501-365c-35-70-83-130-145-179-63-49-138-88-227-115-63-19-133-29-206-34-27-2-52-5-80-5h-1c-4 0-7-1-12-1-126 0-243 18-350 54-108 36-205 85-291 148-87 62-163 137-229 222s-121 178-165 278-78 204-101 313-34 219-34 329c0 125 18 239 54 342s91 192 165 268c74 75 168 134 281 175s247 62 400 62c129 0 251-12 365-34s215-52 304-88l92-448c-92 46-199 83-323 110-123 28-241 41-353 41-75 0-142-8-202-25-60-16-112-43-154-78-42-36-75-82-97-139s-34-123-34-199v-13c37 1 68 2 93 2 211 0 397-18 559-52 162-35 298-85 408-150s194-144 250-237c13-22 20-47 30-70 33-75 54-154 54-243 0-5-1-9-1-14-2-80-18-154-50-221zm6511 356c-27 42-72 80-135 113s-146 60-249 80-231 30-383 31c24-85 57-160 99-225s88-121 141-166c52-45 108-79 168-102 59-23 118-35 175-35 5 0 8 2 12 2 69 2 123 18 158 50 37 34 56 75 56 122 0 44-14 88-41 130zm501-365c-35-70-83-130-145-179-63-49-138-88-227-115-86-26-182-39-288-40v-1 1c-4 0-7-1-12-1-126 0-243 18-351 54s-205 85-291 148c-87 63-163 137-229 222s-121 178-165 278-78 204-101 313-34 219-34 329c0 125 18 239 54 342s91 192 165 268c74 75 168 134 281 175s247 62 400 62c129 0 251-12 365-34s215-51 304-87l92-447c-92 46-199 83-322 110s-241 41-353 41c-75 0-142-8-202-25-60-16-111-43-154-78-42-36-75-82-97-139s-34-123-34-199v-13c37 1 68 2 93 2 211 0 397-18 559-52 162-35 298-85 409-150 110-65 194-144 250-237 13-22 20-47 30-70 33-75 54-154 54-243 0-5-1-9-2-14-2-80-18-154-50-220zm1877-325c-57-8-113-13-166-13-135 0-253 28-353 83s-191 132-273 232h-9v-262l-432 1-430 2085 508-1 216-1048c16-76 31-136 46-179s30-80 46-110c33-63 72-116 116-158s92-76 142-102 102-44 155-56c48-11 96-15 143-16 5 0 9-2 14-2 57 0 117 7 179 21l93-450 5-26zm1447 1011c-11 77-28 151-50 224s-50 140-85 203c-34 63-74 119-120 167s-97 86-155 113c-36 17-74 27-114 33-24 4-49 8-75 8-2 0-3-1-6-1-31 0-54-9-80-14-73-13-136-39-176-88-55-69-83-163-83-282 0-73 6-148 17-224s28-150 51-223c23-72 51-140 85-203s73-119 119-167 98-86 155-113 120-41 189-41c6 0 9 2 15 2 109 3 192 35 246 101 56 69 84 162 84 279 0 73-6 148-17 225zm470-581c-39-100-94-182-165-247s-157-114-256-147c-96-32-203-47-321-48v-1 1c-5 0-9-1-14-1-192 0-361 39-508 116-146 77-268 180-366 309s-172 278-222 447-75 345-75 528c0 133 20 249 58 348 39 99 94 181 165 246s157 114 257 147 212 49 333 49c192 0 361-39 508-116 146-77 268-180 366-309 40-53 74-112 106-171 46-86 87-176 116-275 50-169 75-345 75-528 0-102-16-192-39-275-7-24-11-50-19-72zm1670 253c-27 42-72 80-135 113s-146 60-249 80-231 30-383 31c24-85 57-160 99-225 41-65 88-121 141-166 52-45 108-79 168-102 59-23 118-35 175-35 5 0 8 2 13 2 69 2 122 18 157 50 37 34 56 75 56 123 0 44-14 88-41 130zm493-377c-34-65-79-122-138-168-62-49-138-88-227-115-86-26-182-39-288-40v-1 1c-4 0-7-1-11-1-126 0-243 18-350 54-108 36-205 85-291 148-87 63-163 136-229 222-66 85-121 178-165 278s-78 204-101 313-34 219-34 329c0 125 18 239 54 342s91 192 165 268c74 75 168 134 281 175 113 42 247 62 400 62 129 0 251-11 364-34 94-18 178-43 255-71 16-6 34-11 49-17l92-448c-15 8-34 14-50 21-81 36-170 66-272 89-123 28-241 41-353 41-75 0-142-8-202-25-60-16-112-43-154-78-42-36-75-82-97-139s-33-123-33-199v-13c37 1 68 2 92 2 211 0 397-18 559-52 162-35 298-85 409-150 103-61 179-134 235-219 2-3 4-6 7-8 3-3 6-6 8-10 57-93 85-197 85-313 0-86-18-164-52-234-2-4-5-7-7-11zm1605-282c-60-13-121-24-183-32s-124-12-186-12c-109 0-213 14-312 42s-186 70-260 127-134 128-178 215-67 189-66 307c0 79 11 146 34 202 22 56 52 104 91 145 38 41 81 75 129 102s98 51 150 71c56 21 112 41 167 58s104 36 147 57 78 45 106 72c27 27 41 62 41 105 0 86-37 153-112 201-74 48-183 72-327 73-99 0-197-10-294-31s-193-50-287-87l-83 407c24 11 58 24 100 39 42 14 92 28 149 41s120 23 190 32 145 13 224 13c141 0 268-16 383-47s214-77 297-139 147-138 192-228 68-195 67-314c0-93-16-171-47-232-31-62-71-113-120-156-49-42-103-76-164-102-60-26-120-49-179-71-46-17-90-34-132-49-42-16-80-34-112-54s-58-43-78-70c-19-27-29-59-29-98 0-64 27-117 80-157 54-40 130-60 229-60 92 0 190 11 294 34s210 56 317 101l81-398c-44-21-94-41-149-59s-111-34-171-47zm4655 2l-522 1-406 766c-98 189-204 418-317 687h-13c-12-249-26-473-42-671l-63-781-510 1-352 857c-79 199-149 397-210 592h-13c-20-202-47-407-80-613l-143-834-510 1 405 2084 497-1 343-865c96-247 168-448 217-603h13c7 204 18 409 31 617l63 850 481-1 728-1286 452-800h-50zm1464 972c-11 77-29 151-51 224s-50 140-84 203-75 119-120 167c-46 48-97 86-154 113-36 17-75 27-115 33-25 4-49 8-75 8-2 0-4-1-6-1-31 0-53-9-80-14-74-13-136-38-176-88-55-69-83-163-83-282 0-73 5-148 17-224s29-150 52-223c23-72 51-140 85-203 33-63 73-119 119-167s97-86 155-113c57-27 120-41 189-41 5 0 9 2 15 3 109 3 192 35 246 100 56 69 84 162 84 280 0 73-5 148-17 225zm470-581c-39-100-94-182-165-247s-157-114-256-147c-96-32-203-47-321-48v-1 1c-5 0-9-1-13-1-193 0-361 39-508 116-146 77-268 180-366 309s-172 278-222 447-75 345-75 528c1 133 20 249 59 348s94 181 165 246 157 114 257 147c101 33 211 49 333 49 192 0 361-39 507-116s268-180 366-309c45-58 83-122 117-189 41-80 77-165 105-258 50-169 75-345 75-528 0-22-4-41-5-63-5-105-22-202-54-285zm1803-443c-17-1-35-4-52-4-135 0-252 28-353 83s-191 133-273 232h-9l-1-263-432 1-430 2085 508-1 216-1048c16-76 31-136 46-178 15-43 30-80 46-110 33-63 72-116 116-158 45-42 92-77 142-102 50-26 102-45 155-56 53-12 105-17 157-17 21 0 45 6 67 8 37 3 73 4 112 13l98-475c-39-6-76-7-113-9zm2230 45l-622 1-784 831h-15c13-50 26-104 40-162 13-58 26-114 38-169l314-1530-508 1-641 3115 507-1 203-985h9c34 32 62 79 83 142s42 133 65 210c22 77 48 156 76 237 29 81 69 155 122 221 52 67 119 121 200 163s184 63 309 63c52 0 106-4 164-13l86-419c-50 12-93 17-129 17-66 0-120-13-164-41-43-27-79-62-108-105s-52-91-69-145c-18-54-33-107-47-160-13-53-27-103-40-151-13-47-31-85-52-114v-9l962-997zm2953 252c-31-66-75-122-130-168s-119-81-191-104c-73-24-150-35-231-35-72 0-140 9-205 26s-126 40-182 69-107 62-153 100c-47 38-87 78-122 120h-9c41-131 70-237 86-318l201-975-508 1-642 3115 508-1 214-1039c10-47 19-88 29-124 10-35 19-66 29-94 10-27 20-52 31-73 11-22 22-42 33-60 60-98 135-175 225-233s188-86 293-86c86 0 149 20 189 60s60 97 60 170c0 24-2 54-7 89s-12 75-20 119l-261 1269 508-1 144-696 111-535c13-65 24-129 34-194s15-123 15-176c0-2-1-4-1-6-1-83-17-158-47-222zm1703 391c-27 42-73 80-136 113s-146 60-250 80c-103 20-231 30-382 31 24-85 57-160 98-225s88-121 140-166c53-45 108-79 168-102s118-34 175-35c5 0 8 2 12 2 69 2 123 18 158 50 37 34 56 75 56 123 0 45-13 88-40 130zm501-365c-35-70-83-130-146-179-62-49-138-88-227-115-85-26-181-39-286-40v-1 1c-5 0-9-1-13-1-126 0-243 18-351 54-107 36-204 85-291 148s-163 137-229 222-121 178-165 278-78 204-101 313-34 219-34 329c0 125 18 239 54 342s91 193 165 268 167 133 281 175c113 41 247 62 400 62 129 0 251-11 365-34 114-22 215-52 304-88l92-448c-92 46-200 83-323 110s-241 41-353 41c-74 0-142-8-202-24s-111-43-154-78c-42-36-75-82-97-139-23-57-33-123-34-199v-13c38 1 68 2 93 2 211 0 397-18 559-52 162-35 298-85 408-150s194-144 251-237c13-22 20-47 30-70 33-75 54-155 54-243 0-5-2-9-2-14-2-80-18-154-50-220zm1877-325c-57-9-112-13-166-13-134 0-252 28-353 83-100 55-191 132-273 232h-9v-262l-432 1-430 2085 507-1 216-1048c16-76 31-136 46-179s30-80 46-110c33-63 72-116 116-158s91-76 142-102c50-26 102-45 154-56 47-10 94-14 140-15 5 0 11-2 17-2 58 0 117 7 179 21l94-455 4-21zm1332 685c-27 42-72 80-135 113s-146 60-250 80c-103 20-231 30-383 31 24-85 57-160 98-225s89-121 141-166 108-79 168-103c59-23 118-34 175-35 4 0 8 2 12 2 69 2 123 18 158 50 37 34 56 75 56 123 0 44-13 88-41 130zm356-545c-62-49-138-88-227-115-86-26-181-39-286-40v-1 1c-4 0-9-1-13-1-126 0-243 18-351 54s-205 85-292 148-163 136-229 222c-66 85-121 178-165 278-45 100-78 204-101 313s-34 219-34 329c0 125 18 239 54 342s91 192 165 267 168 134 281 175 246 62 400 62c129 0 251-12 365-34s215-52 304-88l92-448c-91 46-199 83-323 110-123 27-240 41-352 41-75 0-142-8-202-24s-112-42-154-78-75-82-97-139-33-123-33-199v-13c37 1 68 2 93 2 211 0 397-18 559-52 162-35 298-85 408-150s194-144 250-237 85-197 85-313c-1-86-18-164-52-234s-83-130-145-179zm-3977-4901c-21 114-81 175-172 219-427 208-862 336-1347 227-356-80-575-277-618-637-38-314 200-602 563-736 180-66 364-51 569-58 77 5 175 9 273 19 709 68 860 272 732 967zm1348 2589c292 5 584 8 876 0h435c71 0 129-58 128-129l-3-575c3-1351 1-2702 1-4052 0-319 12-638-61-952 13-1120-720-2101-1873-2515-648-233-1316-247-1995-251-1156-7-2159 387-3077 1057-118 86-162 158-82 300 223 396 436 798 648 1200 10 20 25 42 40 63l14 26c7 13 20 17 31 26 4 4 10 12 13 14 1 0 2-1 3-1 25 11 53 15 79 2l752-354c698-241 1637-405 2167-47 176 102 328 250 404 426 49 90 81 194 95 315 26 237-11 272-245 204-953-274-1899-215-2822 138-1880 720-2125 2594-1297 3942 666 1085 2000 1405 3148 1257 608-78 1098-395 1515-854l251 636c20 50 59 88 106 108 5 3 11 5 16 6 19 6 40 10 61 10h672zm-15100-2586c-21 114-81 175-172 219-426 208-862 336-1348 226-356-80-575-277-618-637-37-314 199-602 563-736 179-66 364-51 569-58 77 5 175 9 273 19 709 68 860 272 732 967zm493 2464c20 50 59 88 106 108 5 3 11 5 16 6 19 6 40 10 61 10h673c292 5 584 8 876 0h435c71 0 128-58 128-129l-3-575c3-1351 1-2702 0-4052 0-319 13-638-61-952 13-1120-720-2101-1873-2515-648-233-1316-247-1995-251-1156-7-2160 387-3077 1056-118 86-163 158-83 300 223 396 436 798 648 1200 10 20 25 42 40 63l14 26c7 13 20 18 31 26 4 4 10 12 13 14 1 0 2-1 3-1 25 11 53 15 79 2l752-354c698-241 1637-405 2167-47 176 102 327 250 405 426 49 90 81 194 94 315 26 237-11 272-245 204-953-274-1899-215-2822 138-1880 720-2125 2594-1297 3942 666 1085 2000 1406 3148 1257 607-78 1097-395 1515-854l251 636z"/><path class="fil0" d="M17382 11578h-2c1 1509 2 3018 2 4527 0 738-498 1340-1199 1451-754 120-1433-287-1687-991-67-185-89-365-89-556-1-2966-5-5933-8-8899-1-485-1-484 496-484h21c713 0 1426 8 2139-6 9 0 14 2 23 2 230 1 309 82 307 324-8 1544-3 3088-2 4631zm-1637 9010c26 55 50 111 70 168 53 150 69 260 46 351-69 208-367 289-567 292l-8270-4c-247 0-437-85-533-311-25-115 13-260 113-472 954-2018 1907-4037 2872-6051 332-692 515-1406 500-2177-16-814-5-1628-8-2443 0-114-8-228 111-295 728 0 1456-1 2184-1 51 54 101 109 152 163l12 3270c25 550 244 1041 474 1526 945 1996 1895 3989 2843 5984zm-10202-999c-987-135-1907-444-2683-1089-965-803-1568-1829-1729-3074-266-2063 672-3499 2212-4605 160-93 419-245 579-338 432-170 580-497 562-962-12-314-35-628-35-942v-912c0-762-1-1525-1-2287 9-138 7-282 162-354 918 2 1837 5 2755 7 128 89 111 223 110 353-1 1465 5 2931-8 4396-2 239 128 463 343 567 516 249 989 569 1424 945 187 161 317 706 221 926-28 64-70 52-124 53-1739 45-3479 10-5218 17-285 1-571 9-856 14-278 0-555 1-833 1-188 14-250 171-330 300-986 1593-820 3579 418 5021 830 968 1880 1499 3153 1603 243 20 481 10 722 4 102-3 239-74 292 60 47 117-162 336-311 349-278 24-552-15-826-53zM18076 6074c-72-23-153-26-230-26-1293-1-2586 0-3879 2-77 0-158 4-230 28-131 44-180 152-184 285-3 114 30 225 146 247 240 46 232 212 232 394-2 2768 0 5536-2 8304 0 59 41 136-50 191-135-276-260-551-403-817-395-739-634-1521-620-2362 12-702 24-1404 0-2106-15-429-3-429 398-541 154-43 274-123 265-304-9-176-125-247-273-280-13-3-25-8-39-10-15-3-30-1-45-1h-1c-19 0-38-1-58-1h-23c-1276-2-2553-3-3829-5-87 0-173-2-253 41-109 59-168 145-170 270-2 130 64 211 178 260 89 38 181 57 279 51 100-7 174 27 175 140 2 260 1 521 1 820v38c-10-7-19-14-29-22-370-281-702-530-1074-710-227-110-305-271-303-517 7-1319 2-2638 1-3957 0-380 22-402 409-424 337-19 523-337 349-600-98-149-255-171-414-171-1623-1-3245-1-4868 2-306 1-478 150-479 396-1 202 180 368 448 369 10 0 20 2 30 1 274-12 342 101 340 353-8 1206-35 2413 11 3618 21 555-154 848-635 1144-1086 667-1923 1556-2398 2719-1 0-2-1-4-1-590 1318-529 3009 180 4254 802 1546 2396 2777 4075 3004 4 1 8 1 12 1 66 28 140 37 209 45 126 14 252 34 378 46 108 10 216 36 325 38 40 1 79 0 119 0 1 0 59 4 25 0 8 1 14 2 17 2 8 5 17 9 25 13-86 233-194 438-198 679-1 45 4 86 8 127 81 493 558 773 1002 773l8270 4c347 0 958-190 1086-772-2-14 2-27-1-40 10-202-53-437-193-734-208-438-419-876-628-1314-172-363-343-728-532-1132-3-6-5-11-8-17 6 3 12 5 19 8 1269 606 2884-288 2865-1879-35-3002-12-6005-16-9007 0-179-16-342 230-386 118-21 155-149 146-275s-68-218-186-256zm53984 14813zm-49 0zm-46470-16zm-48 1zM59496 5015l-1 1h1v-1zM37613 18855c-100 55-191 133-273 232h-9v-262l-432 1-430 2085 508-1 216-1048c16-76 31-136 46-179s30-80 46-110c33-63 72-116 116-158s92-77 142-103 102-44 155-56c53-11 105-17 157-17 57 0 117 7 179 21l98-476c-57-8-113-13-166-13-135 0-252 28-353 83zm3451 221c-32-66-75-122-130-168s-119-81-192-104-149-35-231-35c-72 0-140 9-205 26s-126 40-182 69-107 62-154 100c-46 38-87 78-121 120h-9c41-131 70-237 86-318l201-975-508 1-641 3115 508-1 214-1039c10-47 20-89 29-124s19-66 29-94c10-27 20-52 31-73 11-22 22-42 33-60 60-98 135-175 226-232 90-58 188-86 292-87 86 0 149 20 189 60s60 97 60 170c0 24-2 54-7 89s-12 75-20 119l-261 1269 508-1 144-696 111-535c13-65 24-129 34-194s15-123 15-176c0-2-1-4-1-6-1-83-16-157-47-222zM28626 8363c45-178-98-129-173-129-833-4-1667-2-2500 0-98 0-201 0-241 121-66 232-132 464-197 696h-1l-651 2286c-33 113-66 226-99 338-57 193-111 387-163 582l-592 2081-3-10-3 10-593-2081c-52-194-107-388-163-582-33-113-66-226-99-338l-651-2286h-1c-66-232-131-464-197-696-40-121-143-121-241-121-833-2-1667-4-2500 0-75 0-218-49-173 129 39 142 71 286 118 425 435 1294 869 2588 1310 3880 338 988 680 1974 1023 2961l288 850c22 64 82 107 149 107l1731 1 1731-1c67 0 127-43 149-107l288-850c342-986 685-1973 1023-2961 441-1292 875-2586 1310-3880 47-139 79-283 118-425zm3066 2909c280-506 812-795 1392-779 580-17 1112 273 1392 779 425 767 423 1557 0 2326-176 319-441 580-755 703-36 17-84 32-142 45-47 11-94 20-142 25-104 14-225 22-354 22s-249-8-354-22c-48-5-95-14-142-25-57-13-105-28-142-45-314-123-579-384-755-703-423-769-425-1558 0-2326zm-2754 2970c637 1620 2303 2589 4147 2552 1843 36 3510-932 4147-2552 1010-2570-209-5646-3302-6142-282-45-565-68-845-69-280 1-563 24-845 69-3093 496-4312 3572-3302 6142z"/></g></svg>