<svg xmlns="http://www.w3.org/2000/svg" width="14" height="14" viewBox="0 0 14 14">
    <g fill="none" fill-rule="nonzero">
        <rect width="13.992" height="13.992" fill="#59AAE7" rx="6.996"/>
        <path fill="#FFF" d="M10.255 3.527L2.798 6.433a.272.272 0 0 0 .022.514l1.895.56.707 2.243c.074.234.37.306.543.13l.98-1 1.922 1.41c.235.173.57.045.63-.24l1.273-6.087a.384.384 0 0 0-.515-.436zm-.935 1.35L5.856 7.94a.186.186 0 0 0-.061.119L5.66 9.244c-.004.04-.058.044-.07.007l-.548-1.768a.186.186 0 0 1 .08-.213l4.09-2.537c.094-.058.19.071.107.145z"/>
    </g>
</svg>
