<svg xmlns="http://www.w3.org/2000/svg" width="274" height="248"><g fill-rule="evenodd" opacity=".031"><path fill-rule="nonzero" d="M258.193 0H15.805C7.093 0 0 7.212 0 16.075v50.852C0 75.787 7.091 83 15.805 83h242.39C266.907 83 274 75.788 274 66.927V16.075C273.998 7.212 266.907 0 258.193 0zm4.145 66.927c0 2.324-1.86 4.215-4.145 4.215H15.805c-2.285 0-4.145-1.891-4.145-4.215V16.075c0-2.324 1.86-4.22 4.145-4.22h242.39c2.285 0 4.145 1.896 4.145 4.22v50.852h-.002z"/><path fill-rule="nonzero" d="M233.172 71H40.828C37.611 71 35 73.652 35 76.92v213.16c0 3.268 2.61 5.92 5.828 5.92h192.344c3.217 0 5.828-2.652 5.828-5.92V76.92c0-3.268-2.61-5.92-5.828-5.92zm-5.83 213.159H46.656V82.843h180.686v201.316z"/><path d="M204 95c-3.312 0-6 2.643-6 5.9v165.2c0 3.257 2.688 5.9 6 5.9s6-2.643 6-5.9V100.902c0-3.258-2.688-5.901-6-5.901z"/></g></svg>