<svg xmlns="http://www.w3.org/2000/svg" width="40" height="36"><g fill="#FFF" fill-rule="evenodd"><path fill-rule="nonzero" d="M34.339.05H4.772A1.94 1.94 0 0 0 2.844 2v6.164a1.94 1.94 0 0 0 1.928 1.948H34.34a1.94 1.94 0 0 0 1.928-1.948V1.999A1.94 1.94 0 0 0 34.339.05zm.505 8.113c0 .281-.227.51-.505.51H4.772a.509.509 0 0 1-.505-.51V1.999a.51.51 0 0 1 .505-.511H34.34a.51.51 0 0 1 .506.51v6.165z"/><path fill-rule="nonzero" d="M31.289 8.674H7.822a.715.715 0 0 0-.71.718v25.87c0 .396.318.718.71.718H31.29a.715.715 0 0 0 .711-.718V9.392a.715.715 0 0 0-.711-.718zm-.711 25.87H8.533V10.11h22.045v24.432z"/><path d="M27.733 11.548a.715.715 0 0 0-.71.719v20.12c0 .397.318.719.71.719a.715.715 0 0 0 .711-.719v-20.12a.715.715 0 0 0-.71-.719zm11.378 22.995H.711a.715.715 0 0 0-.711.719c0 .396.319.718.711.718h38.4a.715.715 0 0 0 .711-.718.715.715 0 0 0-.711-.719z"/></g></svg>