<svg xmlns="http://www.w3.org/2000/svg" width="14" height="14" viewBox="0 0 14 14">
    <g fill="none" fill-rule="nonzero">
        <path fill="#4CAF50" d="M7.002 0h-.004C3.138 0 0 3.14 0 7c0 1.531.493 2.95 1.333 4.103l-.873 2.6 2.69-.86A6.94 6.94 0 0 0 7.003 14C10.862 14 14 10.86 14 7s-3.139-7-6.998-7z"/>
        <path fill="#FAFAFA" d="M11.075 9.885c-.169.477-.84.872-1.374.988-.366.078-.843.14-2.452-.527-2.057-.852-3.381-2.943-3.485-3.078-.099-.136-.831-1.107-.831-2.112 0-1.004.51-1.493.716-1.703.169-.173.448-.251.715-.251.087 0 .165.004.235.007.206.01.309.022.444.346.17.407.58 1.411.63 1.515.05.103.1.243.03.379-.066.14-.124.202-.227.32-.104.12-.202.21-.305.338-.094.112-.201.23-.082.436.119.202.53.873 1.136 1.412.781.695 1.415.918 1.641 1.012.17.07.37.053.494-.078.156-.169.35-.449.547-.724.14-.198.316-.223.502-.153.189.066 1.189.56 1.395.663.205.103.34.152.39.239.05.086.05.493-.12.97z"/>
    </g>
</svg>
