<svg xmlns="http://www.w3.org/2000/svg" xmlns:xlink="http://www.w3.org/1999/xlink" width="102" height="102" viewBox="0 0 102 102">
    <defs>
        <circle id="a" cx="50" cy="50" r="50"/>
    </defs>
    <g fill="none" fill-rule="evenodd" transform="translate(1 1)">
        <mask id="b" fill="#fff">
            <use xlink:href="#a"/>
        </mask>
        <use stroke="#CDA79C" xlink:href="#a"/>
        <g fill="#CDA79C" mask="url(#b)">
            <path fill-rule="nonzero" d="M68.174 33.2h-4.957v-1.6c0-.442-.37-.8-.826-.8h-6.608V30c-.003-2.208-1.85-3.997-4.13-4-2.28.003-4.129 1.792-4.131 4v.8h-6.609a.813.813 0 0 0-.826.8v1.6H35.13a.813.813 0 0 0-.826.8v32.8h-2.478a.813.813 0 0 0-.826.8v3.2c0 1.767 1.48 3.2 3.304 3.2h31.392C67.52 74 69 72.567 69 70.8V34c0-.442-.37-.8-.826-.8zm-26.435-.8h6.609a.813.813 0 0 0 .826-.8V30c0-1.325 1.11-2.4 2.478-2.4 1.369 0 2.478 1.075 2.478 2.4v1.6c0 .442.37.8.827.8h6.608v3.2H41.74v-3.2zm-7.435 40c-.912 0-1.652-.716-1.652-1.6v-2.4h29.74v2.4a3.1 3.1 0 0 0 .443 1.6h-28.53zm33.044-1.6c0 .884-.74 1.6-1.652 1.6-.913 0-1.653-.716-1.653-1.6v-3.2c0-.442-.37-.8-.826-.8h-27.26v-32h4.13v1.6c0 .442.37.8.826.8h21.478a.813.813 0 0 0 .826-.8v-1.6h4.13v36z"/>
            <path d="M50.826 29.2h1.652v1.6h-1.652z"/>
            <path fill-rule="nonzero" d="M58.456 43.6l-2.673-1.294V40.4H54.13v1.906l-2.478 1.2-2.478-1.2V40.4h-1.652v1.906l-2.848 1.378a.798.798 0 0 0-.457.716v3.2h-1.652v1.6h2.284l2.673 1.294V52.4h1.652v-1.906l2.478-1.2 2.478 1.2V52.4h1.653v-1.906l2.847-1.374a.798.798 0 0 0 .457-.72v-3.2h1.652v-1.6h-2.283zm-7.63 4.306l-2.478 1.2-2.478-1.2v-3.012l2.478-1.2 2.478 1.2v3.012zm6.609 0l-2.478 1.2-2.479-1.2v-3.012l2.479-1.2 2.478 1.2v3.012z"/>
            <path d="M59.087 40.4h1.652V42h-1.652zM62.391 40.4h1.652V42h-1.652zM42.565 50.8h1.652v1.6h-1.652zM39.261 50.8h1.652v1.6h-1.652zM39.261 58.8h24.783v1.6H39.261zM39.261 62h21.478v1.6H39.261zM44.217 55.6h19.826v1.6H44.217zM40.913 55.6h1.652v1.6h-1.652z"/>
        </g>
    </g>
</svg>
